<svg width="100%" height="100%" viewBox="0 0 720 180" xmlns="http://www.w3.org/2000/svg">
  <defs>
    <style>
      @keyframes legCycle {
        0%, 49.9% { opacity: 1; }
        50%, 100% { opacity: 0; }
      }
      @keyframes legCycleAlt {
        0%, 49.9% { opacity: 0; }
        50%, 100% { opacity: 1; }
      }
      @keyframes eyeWink {
        0%, 92.7% { opacity: 1; }
        92.8%, 100% { opacity: 0; }
      }
      @keyframes eyeWinkClosed {
        0%, 92.7% { opacity: 0; }
        92.8%, 100% { opacity: 1; }
      }
      .legs-normal { animation: legCycle 0.32s infinite; }
      .legs-walk { animation: legCycleAlt 0.32s infinite; }
      .eye-left-open { animation: eyeWink 2.5s infinite; }
      .eye-left-closed { animation: eyeWinkClosed 2.5s infinite; }
    </style>
  </defs>
  <!-- <rect x="0" y="0" width="720" height="180" fill="#111111" rx="20" /> -->
  <g id="logo-icon" fill="#5534a5">
    <path d="M 18,0 H 78 V 24 H 66 V 12 H 60 V 24 H 36 V 12 H 30 V 24 H 18 Z M 12,24 H 18 V 48 H 12 Z M 78,24 H 84 V 48 H 78 Z M 18,48 H 78 V 60 H 66 V 72 H 30 V 60 H 18 Z" />
    <g id="eyes">
      <g class="eye-left-open">
        <polygon points="42,28 46,36 42,44 38,36" fill="none" stroke="#5534a5" stroke-width="1.5" />
        <polygon points="42,32 44,36 42,40 40,36" fill="#5534a5" />
      </g>
      <g class="eye-left-closed">
        <rect x="36" y="34" width="12" height="4" fill="#5534a5" />
      </g>
      <polygon points="54,28 58,36 54,44 50,36" fill="none" stroke="#5534a5" stroke-width="1.5" />
      <polygon points="54,32 56,36 54,40 52,36" fill="#5534a5" />
    </g>
    <g class="legs-normal">
      <path d="M 12,72 H 18 V 108 H 12 Z M 24,72 H 30 V 96 H 24 Z M 36,72 H 42 V 84 H 36 Z M 54,72 H 60 V 84 H 54 Z M 66,72 H 72 V 96 H 66 Z M 78,72 H 84 V 108 H 78 Z" />
    </g>
    <g class="legs-walk">
      <path d="M 12,72 H 18 V 84 H 12 Z M 12,96 H 18 V 108 H 12 Z M 24,72 H 30 V 96 H 24 Z M 36,72 H 42 V 96 H 36 Z M 54,72 H 60 V 96 H 54 Z M 66,72 H 72 V 96 H 66 Z M 78,72 H 84 V 84 H 78 Z M 78,96 H 84 V 108 H 78 Z" />
    </g>
  </g>
  <g id="pixel-memanto" fill="#5534a5" stroke="#5534a5" transform="translate(100, 0)">
                    <rect x="0" y="0" width="8" height="16" fill="#5534a5" />
                    <rect x="8" y="0" width="8" height="16" fill="#5534a5" />
                    <rect x="16" y="0" width="8" height="16" fill="#5534a5" />
                    <rect x="56" y="0" width="8" height="16" fill="#5534a5" />
                    <rect x="64" y="0" width="8" height="16" fill="#5534a5" />
                    <rect x="72" y="0" width="8" height="16" fill="#5534a5" />
                    <rect x="0" y="16" width="8" height="16" fill="#5534a5" />
                    <rect x="8" y="16" width="8" height="16" fill="#5534a5" />
                    <rect x="16" y="16" width="8" height="16" fill="#5534a5" />
                    <rect x="24" y="16" width="8" height="16" fill="#5534a5" />
                    <rect x="48" y="16" width="8" height="16" fill="#5534a5" />
                    <rect x="56" y="16" width="8" height="16" fill="#5534a5" />
                    <rect x="64" y="16" width="8" height="16" fill="#5534a5" />
                    <rect x="72" y="16" width="8" height="16" fill="#5534a5" />
                    <rect x="0" y="32" width="8" height="16" fill="#5534a5" />
                    <rect x="8" y="32" width="8" height="16" fill="#5534a5" />
                    <rect x="24" y="32" width="8" height="16" fill="#5534a5" />
                    <rect x="32" y="32" width="8" height="16" fill="#5534a5" />
                    <rect x="40" y="32" width="8" height="16" fill="#5534a5" />
                    <rect x="48" y="32" width="8" height="16" fill="#5534a5" />
                    <rect x="64" y="32" width="8" height="16" fill="#5534a5" />
                    <rect x="72" y="32" width="8" height="16" fill="#5534a5" />
                    <rect x="0" y="48" width="8" height="16" fill="#5534a5" />
                    <rect x="8" y="48" width="8" height="16" fill="#5534a5" />
                    <rect x="32" y="48" width="8" height="16" fill="#5534a5" />
                    <rect x="40" y="48" width="8" height="16" fill="#5534a5" />
                    <rect x="64" y="48" width="8" height="16" fill="#5534a5" />
                    <rect x="72" y="48" width="8" height="16" fill="#5534a5" />
                    <rect x="0" y="64" width="8" height="16" fill="#5534a5" />
                    <rect x="8" y="64" width="8" height="16" fill="#5534a5" />
                    <rect x="64" y="64" width="8" height="16" fill="#5534a5" />
                    <rect x="72" y="64" width="8" height="16" fill="#5534a5" />
                    <rect x="96" y="0" width="8" height="16" fill="#5534a5" />
                    <rect x="104" y="0" width="8" height="16" fill="#5534a5" />
                    <rect x="112" y="0" width="8" height="16" fill="#5534a5" />
                    <rect x="120" y="0" width="8" height="16" fill="#5534a5" />
                    <rect x="128" y="0" width="8" height="16" fill="#5534a5" />
                    <rect x="136" y="0" width="8" height="16" fill="#5534a5" />
                    <rect x="144" y="0" width="8" height="16" fill="#5534a5" />
                    <rect x="168" y="0" width="8" height="16" fill="#5534a5" />
                    <rect x="176" y="0" width="8" height="16" fill="#5534a5" />
                    <rect x="184" y="0" width="8" height="16" fill="#5534a5" />
                    <rect x="224" y="0" width="8" height="16" fill="#5534a5" />
                    <rect x="232" y="0" width="8" height="16" fill="#5534a5" />
                    <rect x="240" y="0" width="8" height="16" fill="#5534a5" />
                    <rect x="272" y="0" width="8" height="16" fill="#5534a5" />
                    <rect x="280" y="0" width="8" height="16" fill="#5534a5" />
                    <rect x="288" y="0" width="8" height="16" fill="#5534a5" />
                    <rect x="296" y="0" width="8" height="16" fill="#5534a5" />
                    <rect x="304" y="0" width="8" height="16" fill="#5534a5" />
                    <rect x="336" y="0" width="8" height="16" fill="#5534a5" />
                    <rect x="344" y="0" width="8" height="16" fill="#5534a5" />
                    <rect x="352" y="0" width="8" height="16" fill="#5534a5" />
                    <rect x="392" y="0" width="8" height="16" fill="#5534a5" />
                    <rect x="400" y="0" width="8" height="16" fill="#5534a5" />
                    <rect x="96" y="16" width="8" height="16" fill="#5534a5" />
                    <rect x="104" y="16" width="8" height="16" fill="#5534a5" />
                    <rect x="168" y="16" width="8" height="16" fill="#5534a5" />
                    <rect x="176" y="16" width="8" height="16" fill="#5534a5" />
                    <rect x="184" y="16" width="8" height="16" fill="#5534a5" />
                    <rect x="192" y="16" width="8" height="16" fill="#5534a5" />
                    <rect x="216" y="16" width="8" height="16" fill="#5534a5" />
                    <rect x="224" y="16" width="8" height="16" fill="#5534a5" />
                    <rect x="232" y="16" width="8" height="16" fill="#5534a5" />
                    <rect x="240" y="16" width="8" height="16" fill="#5534a5" />
                    <rect x="264" y="16" width="8" height="16" fill="#5534a5" />
                    <rect x="272" y="16" width="8" height="16" fill="#5534a5" />
                    <rect x="304" y="16" width="8" height="16" fill="#5534a5" />
                    <rect x="312" y="16" width="8" height="16" fill="#5534a5" />
                    <rect x="336" y="16" width="8" height="16" fill="#5534a5" />
                    <rect x="344" y="16" width="8" height="16" fill="#5534a5" />
                    <rect x="352" y="16" width="8" height="16" fill="#5534a5" />
                    <rect x="360" y="16" width="8" height="16" fill="#5534a5" />
                    <rect x="392" y="16" width="8" height="16" fill="#5534a5" />
                    <rect x="400" y="16" width="8" height="16" fill="#5534a5" />
                    <rect x="96" y="32" width="8" height="16" fill="#5534a5" />
                    <rect x="104" y="32" width="8" height="16" fill="#5534a5" />
                    <rect x="112" y="32" width="8" height="16" fill="#5534a5" />
                    <rect x="120" y="32" width="8" height="16" fill="#5534a5" />
                    <rect x="128" y="32" width="8" height="16" fill="#5534a5" />
                    <rect x="168" y="32" width="8" height="16" fill="#5534a5" />
                    <rect x="176" y="32" width="8" height="16" fill="#5534a5" />
                    <rect x="192" y="32" width="8" height="16" fill="#5534a5" />
                    <rect x="200" y="32" width="8" height="16" fill="#5534a5" />
                    <rect x="208" y="32" width="8" height="16" fill="#5534a5" />
                    <rect x="216" y="32" width="8" height="16" fill="#5534a5" />
                    <rect x="232" y="32" width="8" height="16" fill="#5534a5" />
                    <rect x="240" y="32" width="8" height="16" fill="#5534a5" />
                    <rect x="264" y="32" width="8" height="16" fill="#5534a5" />
                    <rect x="272" y="32" width="8" height="16" fill="#5534a5" />
                    <rect x="280" y="32" width="8" height="16" fill="#5534a5" />
                    <rect x="288" y="32" width="8" height="16" fill="#5534a5" />
                    <rect x="296" y="32" width="8" height="16" fill="#5534a5" />
                    <rect x="304" y="32" width="8" height="16" fill="#5534a5" />
                    <rect x="312" y="32" width="8" height="16" fill="#5534a5" />
                    <rect x="336" y="32" width="8" height="16" fill="#5534a5" />
                    <rect x="344" y="32" width="8" height="16" fill="#5534a5" />
                    <rect x="360" y="32" width="8" height="16" fill="#5534a5" />
                    <rect x="368" y="32" width="8" height="16" fill="#5534a5" />
                    <rect x="392" y="32" width="8" height="16" fill="#5534a5" />
                    <rect x="400" y="32" width="8" height="16" fill="#5534a5" />
                    <rect x="96" y="48" width="8" height="16" fill="#5534a5" />
                    <rect x="104" y="48" width="8" height="16" fill="#5534a5" />
                    <rect x="168" y="48" width="8" height="16" fill="#5534a5" />
                    <rect x="176" y="48" width="8" height="16" fill="#5534a5" />
                    <rect x="200" y="48" width="8" height="16" fill="#5534a5" />
                    <rect x="208" y="48" width="8" height="16" fill="#5534a5" />
                    <rect x="232" y="48" width="8" height="16" fill="#5534a5" />
                    <rect x="240" y="48" width="8" height="16" fill="#5534a5" />
                    <rect x="264" y="48" width="8" height="16" fill="#5534a5" />
                    <rect x="272" y="48" width="8" height="16" fill="#5534a5" />
                    <rect x="304" y="48" width="8" height="16" fill="#5534a5" />
                    <rect x="312" y="48" width="8" height="16" fill="#5534a5" />
                    <rect x="336" y="48" width="8" height="16" fill="#5534a5" />
                    <rect x="344" y="48" width="8" height="16" fill="#5534a5" />
                    <rect x="368" y="48" width="8" height="16" fill="#5534a5" />
                    <rect x="376" y="48" width="8" height="16" fill="#5534a5" />
                    <rect x="392" y="48" width="8" height="16" fill="#5534a5" />
                    <rect x="400" y="48" width="8" height="16" fill="#5534a5" />
                    <rect x="96" y="64" width="8" height="16" fill="#5534a5" />
                    <rect x="104" y="64" width="8" height="16" fill="#5534a5" />
                    <rect x="112" y="64" width="8" height="16" fill="#5534a5" />
                    <rect x="120" y="64" width="8" height="16" fill="#5534a5" />
                    <rect x="128" y="64" width="8" height="16" fill="#5534a5" />
                    <rect x="136" y="64" width="8" height="16" fill="#5534a5" />
                    <rect x="144" y="64" width="8" height="16" fill="#5534a5" />
                    <rect x="168" y="64" width="8" height="16" fill="#5534a5" />
                    <rect x="176" y="64" width="8" height="16" fill="#5534a5" />
                    <rect x="232" y="64" width="8" height="16" fill="#5534a5" />
                    <rect x="240" y="64" width="8" height="16" fill="#5534a5" />
                    <rect x="264" y="64" width="8" height="16" fill="#5534a5" />
                    <rect x="272" y="64" width="8" height="16" fill="#5534a5" />
                    <rect x="304" y="64" width="8" height="16" fill="#5534a5" />
                    <rect x="312" y="64" width="8" height="16" fill="#5534a5" />
                    <rect x="336" y="64" width="8" height="16" fill="#5534a5" />
                    <rect x="344" y="64" width="8" height="16" fill="#5534a5" />
                    <rect x="376" y="64" width="8" height="16" fill="#5534a5" />
                    <rect x="384" y="64" width="8" height="16" fill="#5534a5" />
                    <rect x="392" y="64" width="8" height="16" fill="#5534a5" />
                    <rect x="400" y="64" width="8" height="16" fill="#5534a5" />
                    <rect x="424" y="0" width="8" height="16" fill="#5534a5" />
                    <rect x="432" y="0" width="8" height="16" fill="#5534a5" />
                    <rect x="440" y="0" width="8" height="16" fill="#5534a5" />
                    <rect x="448" y="0" width="8" height="16" fill="#5534a5" />
                    <rect x="456" y="0" width="8" height="16" fill="#5534a5" />
                    <rect x="464" y="0" width="8" height="16" fill="#5534a5" />
                    <rect x="472" y="0" width="8" height="16" fill="#5534a5" />
                    <rect x="480" y="0" width="8" height="16" fill="#5534a5" />
                    <rect x="448" y="16" width="8" height="16" fill="#5534a5" />
                    <rect x="456" y="16" width="8" height="16" fill="#5534a5" />
                    <rect x="448" y="32" width="8" height="16" fill="#5534a5" />
                    <rect x="456" y="32" width="8" height="16" fill="#5534a5" />
                    <rect x="448" y="48" width="8" height="16" fill="#5534a5" />
                    <rect x="456" y="48" width="8" height="16" fill="#5534a5" />
                    <rect x="448" y="64" width="8" height="16" fill="#5534a5" />
                    <rect x="456" y="64" width="8" height="16" fill="#5534a5" />
                    <rect x="512" y="0" width="8" height="16" fill="#5534a5" />
                    <rect x="520" y="0" width="8" height="16" fill="#5534a5" />
                    <rect x="528" y="0" width="8" height="16" fill="#5534a5" />
                    <rect x="536" y="0" width="8" height="16" fill="#5534a5" />
                    <rect x="544" y="0" width="8" height="16" fill="#5534a5" />
                    <rect x="552" y="0" width="8" height="16" fill="#5534a5" />
                    <rect x="504" y="16" width="8" height="16" fill="#5534a5" />
                    <rect x="512" y="16" width="8" height="16" fill="#5534a5" />
                    <rect x="552" y="16" width="8" height="16" fill="#5534a5" />
                    <rect x="560" y="16" width="8" height="16" fill="#5534a5" />
                    <rect x="504" y="32" width="8" height="16" fill="#5534a5" />
                    <rect x="512" y="32" width="8" height="16" fill="#5534a5" />
                    <rect x="552" y="32" width="8" height="16" fill="#5534a5" />
                    <rect x="560" y="32" width="8" height="16" fill="#5534a5" />
                    <rect x="504" y="48" width="8" height="16" fill="#5534a5" />
                    <rect x="512" y="48" width="8" height="16" fill="#5534a5" />
                    <rect x="552" y="48" width="8" height="16" fill="#5534a5" />
                    <rect x="560" y="48" width="8" height="16" fill="#5534a5" />
                    <rect x="512" y="64" width="8" height="16" fill="#5534a5" />
                    <rect x="520" y="64" width="8" height="16" fill="#5534a5" />
                    <rect x="528" y="64" width="8" height="16" fill="#5534a5" />
                    <rect x="536" y="64" width="8" height="16" fill="#5534a5" />
                    <rect x="544" y="64" width="8" height="16" fill="#5534a5" />
                    <rect x="552" y="64" width="8" height="16" fill="#5534a5" />
                    <line x1="24" y1="8" x2="30" y2="8" /><line x1="30" y1="8" x2="30" y2="16" />
                    <line x1="24" y1="12" x2="26" y2="12" /><line x1="26" y1="12" x2="26" y2="16" />
                    <line x1="80" y1="8" x2="86" y2="8" /><line x1="86" y1="8" x2="86" y2="92" /><line x1="66" y1="80" x2="66" y2="92" /><line x1="66" y1="92" x2="86" y2="92" />
                    <line x1="80" y1="12" x2="82" y2="12" /><line x1="82" y1="12" x2="82" y2="88" /><line x1="70" y1="80" x2="70" y2="88" /><line x1="70" y1="88" x2="82" y2="88" />
                    <line x1="32" y1="24" x2="38" y2="24" /><line x1="38" y1="24" x2="38" y2="32" />
                    <line x1="32" y1="28" x2="34" y2="28" /><line x1="34" y1="28" x2="34" y2="32" />
                    <line x1="18" y1="40" x2="24" y2="40" /><line x1="18" y1="40" x2="18" y2="88" /><line x1="6" y1="80" x2="6" y2="88" /><line x1="6" y1="88" x2="18" y2="88" />
                    <line x1="22" y1="44" x2="24" y2="44" /><line x1="22" y1="44" x2="22" y2="92" /><line x1="2" y1="80" x2="2" y2="92" /><line x1="2" y1="92" x2="22" y2="92" />
                    <line x1="58" y1="40" x2="64" y2="40" /><line x1="58" y1="40" x2="58" y2="56" /><line x1="50" y1="56" x2="58" y2="56" /><line x1="50" y1="56" x2="50" y2="72" /><line x1="38" y1="64" x2="38" y2="72" /><line x1="38" y1="72" x2="50" y2="72" />
                    <line x1="62" y1="44" x2="64" y2="44" /><line x1="62" y1="44" x2="62" y2="60" /><line x1="54" y1="60" x2="62" y2="60" /><line x1="54" y1="60" x2="54" y2="76" /><line x1="34" y1="64" x2="34" y2="76" /><line x1="34" y1="76" x2="54" y2="76" />
                    <line x1="26" y1="48" x2="26" y2="60" /><line x1="26" y1="60" x2="32" y2="60" />
                    <line x1="30" y1="48" x2="30" y2="56" /><line x1="30" y1="56" x2="32" y2="56" />
                    <line x1="152" y1="8" x2="158" y2="8" /><line x1="158" y1="8" x2="158" y2="28" /><line x1="118" y1="28" x2="158" y2="28" /><line x1="118" y1="28" x2="118" y2="32" />
                    <line x1="152" y1="12" x2="154" y2="12" /><line x1="154" y1="12" x2="154" y2="24" /><line x1="114" y1="24" x2="154" y2="24" /><line x1="114" y1="24" x2="114" y2="32" />
                    <line x1="192" y1="8" x2="198" y2="8" /><line x1="198" y1="8" x2="198" y2="16" />
                    <line x1="192" y1="12" x2="194" y2="12" /><line x1="194" y1="12" x2="194" y2="16" />
                    <line x1="248" y1="8" x2="254" y2="8" /><line x1="254" y1="8" x2="254" y2="92" /><line x1="234" y1="80" x2="234" y2="92" /><line x1="234" y1="92" x2="254" y2="92" />
                    <line x1="248" y1="12" x2="250" y2="12" /><line x1="250" y1="12" x2="250" y2="88" /><line x1="238" y1="80" x2="238" y2="88" /><line x1="238" y1="88" x2="250" y2="88" />
                    <line x1="312" y1="8" x2="318" y2="8" /><line x1="318" y1="8" x2="318" y2="16" />
                    <line x1="312" y1="12" x2="314" y2="12" /><line x1="314" y1="12" x2="314" y2="16" />
                    <line x1="360" y1="8" x2="366" y2="8" /><line x1="366" y1="8" x2="366" y2="16" />
                    <line x1="360" y1="12" x2="362" y2="12" /><line x1="362" y1="12" x2="362" y2="16" />
                    <line x1="408" y1="8" x2="414" y2="8" /><line x1="414" y1="8" x2="414" y2="92" /><line x1="378" y1="80" x2="378" y2="92" /><line x1="378" y1="92" x2="414" y2="92" />
                    <line x1="408" y1="12" x2="410" y2="12" /><line x1="410" y1="12" x2="410" y2="88" /><line x1="382" y1="80" x2="382" y2="88" /><line x1="382" y1="88" x2="410" y2="88" />
                    <line x1="200" y1="24" x2="206" y2="24" /><line x1="206" y1="24" x2="206" y2="32" />
                    <line x1="200" y1="28" x2="202" y2="28" /><line x1="202" y1="28" x2="202" y2="32" />
                    <line x1="282" y1="24" x2="304" y2="24" /><line x1="282" y1="24" x2="282" y2="32" />
                    <line x1="286" y1="28" x2="304" y2="28" /><line x1="286" y1="28" x2="286" y2="32" />
                    <line x1="320" y1="24" x2="326" y2="24" /><line x1="326" y1="24" x2="326" y2="92" /><line x1="306" y1="80" x2="306" y2="92" /><line x1="306" y1="92" x2="326" y2="92" />
                    <line x1="320" y1="28" x2="322" y2="28" /><line x1="322" y1="28" x2="322" y2="88" /><line x1="310" y1="80" x2="310" y2="88" /><line x1="310" y1="88" x2="322" y2="88" />
                    <line x1="368" y1="24" x2="374" y2="24" /><line x1="374" y1="24" x2="374" y2="32" />
                    <line x1="368" y1="28" x2="370" y2="28" /><line x1="370" y1="28" x2="370" y2="32" />
                    <line x1="136" y1="40" x2="142" y2="40" /><line x1="142" y1="40" x2="142" y2="60" /><line x1="118" y1="60" x2="142" y2="60" /><line x1="118" y1="60" x2="118" y2="64" />
                    <line x1="136" y1="44" x2="138" y2="44" /><line x1="138" y1="44" x2="138" y2="56" /><line x1="114" y1="56" x2="138" y2="56" /><line x1="114" y1="56" x2="114" y2="64" />
                    <line x1="186" y1="40" x2="192" y2="40" /><line x1="186" y1="40" x2="186" y2="88" /><line x1="174" y1="80" x2="174" y2="88" /><line x1="174" y1="88" x2="186" y2="88" />
                    <line x1="190" y1="44" x2="192" y2="44" /><line x1="190" y1="44" x2="190" y2="92" /><line x1="170" y1="80" x2="170" y2="92" /><line x1="170" y1="92" x2="190" y2="92" />
                    <line x1="226" y1="40" x2="232" y2="40" /><line x1="226" y1="40" x2="226" y2="56" /><line x1="218" y1="56" x2="226" y2="56" /><line x1="218" y1="56" x2="218" y2="72" /><line x1="206" y1="64" x2="206" y2="72" /><line x1="206" y1="72" x2="218" y2="72" />
                    <line x1="230" y1="44" x2="232" y2="44" /><line x1="230" y1="44" x2="230" y2="60" /><line x1="222" y1="60" x2="230" y2="60" /><line x1="222" y1="60" x2="222" y2="76" /><line x1="202" y1="64" x2="202" y2="76" /><line x1="202" y1="76" x2="222" y2="76" />
                    <line x1="354" y1="40" x2="360" y2="40" /><line x1="354" y1="40" x2="354" y2="88" /><line x1="342" y1="80" x2="342" y2="88" /><line x1="342" y1="88" x2="354" y2="88" />
                    <line x1="358" y1="44" x2="360" y2="44" /><line x1="358" y1="44" x2="358" y2="92" /><line x1="338" y1="80" x2="338" y2="92" /><line x1="338" y1="92" x2="358" y2="92" />
                    <line x1="376" y1="40" x2="382" y2="40" /><line x1="382" y1="40" x2="382" y2="48" />
                    <line x1="376" y1="44" x2="378" y2="44" /><line x1="378" y1="44" x2="378" y2="48" />
                    <line x1="194" y1="48" x2="194" y2="60" /><line x1="194" y1="60" x2="200" y2="60" />
                    <line x1="198" y1="48" x2="198" y2="56" /><line x1="198" y1="56" x2="200" y2="56" />
                    <line x1="282" y1="56" x2="304" y2="56" /><line x1="282" y1="56" x2="282" y2="88" /><line x1="270" y1="80" x2="270" y2="88" /><line x1="270" y1="88" x2="282" y2="88" />
                    <line x1="286" y1="60" x2="304" y2="60" /><line x1="286" y1="60" x2="286" y2="92" /><line x1="266" y1="80" x2="266" y2="92" /><line x1="266" y1="92" x2="286" y2="92" />
                    <line x1="362" y1="48" x2="362" y2="60" /><line x1="362" y1="60" x2="368" y2="60" />
                    <line x1="366" y1="48" x2="366" y2="56" /><line x1="366" y1="56" x2="368" y2="56" />
                    <line x1="384" y1="56" x2="390" y2="56" /><line x1="390" y1="56" x2="390" y2="64" />
                    <line x1="384" y1="60" x2="386" y2="60" /><line x1="386" y1="60" x2="386" y2="64" />
                    <line x1="152" y1="72" x2="158" y2="72" /><line x1="158" y1="72" x2="158" y2="92" /><line x1="98" y1="80" x2="98" y2="92" /><line x1="98" y1="92" x2="158" y2="92" />
                    <line x1="152" y1="76" x2="154" y2="76" /><line x1="154" y1="76" x2="154" y2="88" /><line x1="102" y1="80" x2="102" y2="88" /><line x1="102" y1="88" x2="154" y2="88" />
                    <line x1="370" y1="64" x2="370" y2="76" /><line x1="370" y1="76" x2="376" y2="76" />
                    <line x1="374" y1="64" x2="374" y2="72" /><line x1="374" y1="72" x2="376" y2="72" />
                    <line x1="488" y1="8" x2="494" y2="8" /><line x1="494" y1="8" x2="494" y2="28" /><line x1="470" y1="28" x2="494" y2="28" /><line x1="470" y1="28" x2="470" y2="92" /><line x1="450" y1="80" x2="450" y2="92" /><line x1="450" y1="92" x2="470" y2="92" />
                    <line x1="488" y1="12" x2="490" y2="12" /><line x1="490" y1="12" x2="490" y2="24" /><line x1="466" y1="24" x2="490" y2="24" /><line x1="466" y1="24" x2="466" y2="88" /><line x1="454" y1="80" x2="454" y2="88" /><line x1="454" y1="88" x2="466" y2="88" />
                    <line x1="426" y1="16" x2="426" y2="28" /><line x1="426" y1="28" x2="448" y2="28" />
                    <line x1="430" y1="16" x2="430" y2="24" /><line x1="430" y1="24" x2="448" y2="24" />
                    <line x1="560" y1="8" x2="566" y2="8" /><line x1="566" y1="8" x2="566" y2="16" />
                    <line x1="560" y1="12" x2="562" y2="12" /><line x1="562" y1="12" x2="562" y2="16" />
                    <line x1="522" y1="24" x2="552" y2="24" /><line x1="522" y1="24" x2="522" y2="64" />
                    <line x1="526" y1="28" x2="552" y2="28" /><line x1="526" y1="28" x2="526" y2="64" />
                    <line x1="568" y1="24" x2="574" y2="24" /><line x1="574" y1="24" x2="574" y2="76" /><line x1="566" y1="76" x2="574" y2="76" /><line x1="566" y1="76" x2="566" y2="92" /><line x1="514" y1="80" x2="514" y2="92" /><line x1="514" y1="92" x2="566" y2="92" />
                    <line x1="568" y1="28" x2="570" y2="28" /><line x1="570" y1="28" x2="570" y2="72" /><line x1="562" y1="72" x2="570" y2="72" /><line x1="562" y1="72" x2="562" y2="88" /><line x1="518" y1="80" x2="518" y2="88" /><line x1="518" y1="88" x2="562" y2="88" />
                    <line x1="506" y1="64" x2="506" y2="76" /><line x1="506" y1="76" x2="512" y2="76" />
                    <line x1="510" y1="64" x2="510" y2="72" /><line x1="510" y1="72" x2="512" y2="72" />
  </g>
  <text x="360" y="158" font-family="ui-monospace, SFMono-Regular, Menlo, Monaco, Consolas, 'Liberation Mono', 'Courier New', monospace" font-size="18" font-weight="500" fill="#5534a5" text-anchor="middle" letter-spacing="3">REMEMBER · RECALL · ANSWER</text>
</svg>